<svg width="40" height="40" viewBox="0 0 40 40" fill="none" xmlns="http://www.w3.org/2000/svg">
<g clip-path="url(#clip0_309_1591)">
<path d="M15.3346 17.6667H6.0013C5.38246 17.6667 4.78897 17.4208 4.35139 16.9832C3.9138 16.5457 3.66797 15.9522 3.66797 15.3333V8.33333C3.66797 7.71449 3.9138 7.121 4.35139 6.68342C4.78897 6.24583 5.38246 6 6.0013 6H13.0013C13.6201 6 14.2136 6.24583 14.6512 6.68342C15.0888 7.121 15.3346 7.71449 15.3346 8.33333V22.3333C15.3346 28.5563 12.2243 32.4437 6.0013 34" stroke="white" stroke-opacity="0.6" stroke-width="6" stroke-linecap="round" stroke-linejoin="round"/>
<path d="M36.3346 17.6667H27.0013C26.3825 17.6667 25.789 17.4208 25.3514 16.9832C24.9138 16.5457 24.668 15.9522 24.668 15.3333V8.33333C24.668 7.71449 24.9138 7.121 25.3514 6.68342C25.789 6.24583 26.3825 6 27.0013 6H34.0013C34.6201 6 35.2136 6.24583 35.6512 6.68342C36.0888 7.121 36.3346 7.71449 36.3346 8.33333V22.3333C36.3346 28.5563 33.2243 32.4437 27.0013 34" stroke="white" stroke-opacity="0.6" stroke-width="6" stroke-linecap="round" stroke-linejoin="round"/>
</g>
<defs>
<clipPath id="clip0_309_1591">
<rect width="40" height="40" fill="white"/>
</clipPath>
</defs>
</svg>
